<svg xmlns="http://www.w3.org/2000/svg" width="195" height="128" viewBox="0 0 195 128"><g><g><path fill="#059feb" d="M195 9.927v108.145c0 5.474-4.44 9.927-9.897 9.927H9.897c-5.457 0-9.897-4.453-9.897-9.927V9.927C0 4.453 4.44 0 9.897 0h175.206C190.56 0 195 4.453 195 9.927zm-188.683 0v20.489h3.58c.116 0 .21-.096.21-.212v-6.759c0-3.61 2.93-6.547 6.53-6.547h161.727c3.6 0 6.528 2.937 6.528 6.547v6.76c0 .115.095.21.21.21h3.58V9.928a3.59 3.59 0 0 0-3.58-3.59H9.898a3.59 3.59 0 0 0-3.58 3.59zm182.365 108.145v-81.32h-3.58c-3.6 0-6.528-2.937-6.528-6.548v-6.759a.212.212 0 0 0-.21-.211H16.636a.212.212 0 0 0-.21.211v6.76c0 3.61-2.929 6.547-6.529 6.547h-3.58v81.32a3.59 3.59 0 0 0 3.58 3.59h175.206a3.59 3.59 0 0 0 3.58-3.59zM173.29 45.249c5.387 7.499 8.234 16.32 8.234 25.51 0 9.19-2.848 18.01-8.234 25.509a3.157 3.157 0 0 1-2.563 1.315H38.029l-.023.002-.015-.002H24.273c-1.015 0-1.969-.49-2.562-1.315-5.387-7.499-8.234-16.32-8.234-25.51 0-9.19 2.848-18.01 8.234-25.509a3.156 3.156 0 0 1 2.563-1.316h146.452c1.016 0 1.97.49 2.563 1.316zm-32.198 31.71a6.975 6.975 0 0 0 3.79-6.2 6.975 6.975 0 0 0-3.79-6.201zm-6.318-26.689H60.227v40.977h74.546zm-89.05 40.977c-7.169-4.01-12.03-11.689-12.03-20.489s4.861-16.478 12.03-20.488h-6.55a27.166 27.166 0 0 0-9.27 20.488c0 7.902 3.37 15.305 9.27 20.489zm8.186-26.689a6.975 6.975 0 0 0-3.79 6.2 6.975 6.975 0 0 0 3.79 6.201zm0-10.609c-7.9 1.49-13.898 8.459-13.898 16.81 0 8.35 5.997 15.319 13.898 16.81V83.68c-5.795-1.426-10.108-6.677-10.108-12.923 0-6.245 4.313-11.497 10.108-12.922zM25.932 91.247h4.6c-4.474-5.812-6.947-12.968-6.947-20.489 0-7.52 2.473-14.676 6.947-20.488h-4.6a37.123 37.123 0 0 0-6.137 20.488 37.12 37.12 0 0 0 6.137 20.489zm149.273-20.489c0-7.32-2.116-14.37-6.137-20.488h-27.977v7.566c5.794 1.425 10.108 6.677 10.108 12.922 0 6.246-4.314 11.498-10.108 12.923v7.566h27.977a37.122 37.122 0 0 0 6.137-20.489z"/></g></g></svg>