<svg xmlns="http://www.w3.org/2000/svg" width="144" height="139" viewBox="0 0 144 139"><g><g><path fill="#059feb" d="M31.42 52.07c-14.477 0-26.253-11.68-26.253-26.04C5.167 11.672 16.945-.01 31.42-.01c14.48 0 26.258 11.681 26.258 26.04 0 14.36-11.778 26.04-26.258 26.04zm0-43.692c-9.813 0-17.795 7.917-17.795 17.653 0 9.733 7.982 17.65 17.796 17.65 9.816 0 17.8-7.917 17.8-17.65 0-9.733-7.984-17.653-17.8-17.653zm-11.642 19.75a2.104 2.104 0 0 1-2.114-2.097l-.009-.42c-.014-.44-.014-.757.119-1.442.22-1.137 1.336-1.875 2.476-1.666a2.102 2.102 0 0 1 1.679 2.456c-.053.275-.053.275-.045.514l.011.56a2.108 2.108 0 0 1-2.117 2.095zm1.965-6.424a2.13 2.13 0 0 1-1.176-.354 2.09 2.09 0 0 1-.58-2.911 13.772 13.772 0 0 1 11.434-6.055c1.17 0 2.114.938 2.114 2.097 0 1.16-.945 2.098-2.114 2.098a9.54 9.54 0 0 0-7.919 4.194 2.115 2.115 0 0 1-1.76.931zM90.628 52.07c-14.478 0-26.254-11.68-26.254-26.04 0-14.359 11.778-26.04 26.254-26.04 14.48 0 26.258 11.681 26.258 26.04 0 14.36-11.778 26.04-26.258 26.04zm0-43.692c-9.814 0-17.796 7.917-17.796 17.653 0 9.733 7.982 17.65 17.796 17.65 9.816 0 17.8-7.917 17.8-17.65 0-9.733-7.984-17.653-17.8-17.653zM80.95 21.704a2.13 2.13 0 0 1-1.176-.354 2.09 2.09 0 0 1-.58-2.911 13.772 13.772 0 0 1 11.434-6.055c1.17 0 2.114.938 2.114 2.097 0 1.16-.945 2.098-2.114 2.098a9.54 9.54 0 0 0-7.919 4.194 2.115 2.115 0 0 1-1.76.931zm12.484 117.303H14.906c-8.219 0-14.91-5.3-14.91-13.156V71.036c0-8.167 6.964-15.919 14.91-15.919h78.528c8.082 0 14.658 7.066 14.658 15.227 0 .102-.004.413-.01.513l-.106 1.573c6.218-3.211 15.73-8.166 22.376-11.694 2.241-1.074 4.085-1.53 5.793-1.53 2.107 0 3.832.754 5.22 2.16 2.638 2.654 2.422 6.587 2.422 8.258v56.653c0 2.523-.363 4.387-1.416 5.828-.888 1.22-2.716 2.687-5.73 2.708-1.691-.012-3.444-.477-5.644-1.147a3.919 3.919 0 0 1-.694-.307c-8.094-4.228-16.823-8.716-22.442-11.51l.218 3.49c.007.082.013-.262.013-.18-.006 8.003-6.441 13.848-14.658 13.848zm43.206-4.194h-.065.065zM14.906 63.507c-3.302 0-6.451 3.973-6.451 7.529v54.815c0 3.257 2.861 4.767 6.451 4.767h78.528c3.438 0 6.138-2.101 6.2-5.35l-.624-10.142c-.07-1.156.342-2.179 1.142-3.018.8-.843 1.913-1.266 3.079-1.266 1.256 0 2.245.025 30.69 14.877.44.132 1.07.327 1.66.468l.004-56.7c.013-.823-.021-1.375-.072-1.75a9.056 9.056 0 0 0-1.332.528c-29.202 15.493-29.57 15.497-30.95 15.497a4.244 4.244 0 0 1-3.096-1.336 4.185 4.185 0 0 1-1.123-3.159l.62-9.058c-.07-3.416-2.878-6.705-6.198-6.705H14.906zM14.8 89.525a2.104 2.104 0 0 1-2.115-2.097V76.77c0-3.88 3.421-9.07 7.665-9.07H38.31c1.17 0 2.115.936 2.115 2.096 0 1.16-.946 2.097-2.115 2.097H20.35c-1.547 0-3.437 2.922-3.437 4.874v10.659c0 1.161-.945 2.099-2.114 2.099zm34.084-17.63h-2.115a2.104 2.104 0 0 1-2.114-2.097c0-1.16.945-2.097 2.114-2.097h2.115c1.17 0 2.114.938 2.114 2.097 0 1.16-.945 2.098-2.114 2.098z"/></g></g></svg>