<svg xmlns="http://www.w3.org/2000/svg" width="199" height="140" viewBox="0 0 199 140"><g><g><path fill="#059feb" d="M199 123.088v6.85c0 5.548-4.531 10.062-10.1 10.062H10.1C4.53 140 0 135.486 0 129.938v-6.85a3.217 3.217 0 0 1 3.223-3.21h3.654V10.06c0-5.548 4.53-10.062 10.1-10.062h165.046c5.569 0 10.1 4.514 10.1 10.062v109.816h3.653a3.217 3.217 0 0 1 3.224 3.211zm-185.676-3.21h172.352V10.06a3.65 3.65 0 0 0-3.653-3.64H16.977a3.65 3.65 0 0 0-3.653 3.64zm179.229 6.421h-76.087c.005.072.011.142.011.214a3.217 3.217 0 0 1-3.223 3.211H85.746a3.217 3.217 0 0 1-3.223-3.21c0-.073.006-.143.01-.215H6.447v3.64a3.65 3.65 0 0 0 3.653 3.639h178.8a3.65 3.65 0 0 0 3.653-3.64zM178.369 16.911v92.477a3.217 3.217 0 0 1-3.223 3.211H23.854a3.217 3.217 0 0 1-3.223-3.211V16.911a3.217 3.217 0 0 1 3.223-3.211h151.292a3.217 3.217 0 0 1 3.223 3.21zM27.078 106.177h7.306V85.413c0-2.67.787-5.16 2.136-7.256a3.202 3.202 0 0 1-1.325-5.15c3.855-4.335 6.066-12.298 6.066-21.845 0-13.103 10.701-23.762 23.854-23.762 13.154 0 23.855 10.66 23.855 23.762 0 9.547 2.211 17.51 6.066 21.846a3.203 3.203 0 0 1-1.325 5.15 13.362 13.362 0 0 1 2.136 7.255v20.764h7.306V20.122H27.078zM75.72 42.211c-7.687 5.722-17.047 8.832-24.49 10.51.767 6.924 6.702 12.355 13.885 12.355 7.703 0 13.97-6.242 13.97-13.914 0-3.295-1.204-6.448-3.364-8.95zm-24.495 34.39c.736 6.987 6.684 12.45 13.89 12.45 7.207 0 13.155-5.463 13.891-12.45-4.004-1.261-7.038-3.164-9.062-5.683-1.55.376-3.165.58-4.829.58-1.663 0-3.279-.204-4.828-.58-2.024 2.519-5.058 4.422-9.062 5.683zm35.306-4.952c-1.537-3.176-2.65-6.924-3.308-11.111a20.5 20.5 0 0 1-6.943 7.637c2.603 2.04 6.677 3.035 10.25 3.474zM73.353 35.89a17.358 17.358 0 0 0-8.238-2.07c-8.082 0-14.894 5.516-16.845 12.967 6.354-1.314 17.203-4.376 25.083-10.897zM43.7 71.648c3.573-.438 7.649-1.434 10.251-3.473a20.503 20.503 0 0 1-6.943-7.638c-.658 4.188-1.771 7.936-3.308 11.111zm-2.869 34.529H89.4V85.413c0-2.883-1.744-5.364-4.234-6.46-1.799 9.395-10.103 16.52-20.05 16.52-9.948 0-18.252-7.125-20.05-16.52-2.49 1.097-4.235 3.578-4.235 6.46zm131.091-86.055H109.6v86.055h62.322zm-55.015 17.34a3.217 3.217 0 0 1 3.224-3.212h3.653v-.214a3.217 3.217 0 0 1 3.224-3.21 3.217 3.217 0 0 1 3.223 3.21v.214h31.161a3.217 3.217 0 0 1 3.223 3.211 3.217 3.217 0 0 1-3.223 3.211h-31.161v.214a3.217 3.217 0 0 1-3.223 3.21 3.217 3.217 0 0 1-3.224-3.21v-.214h-3.653a3.217 3.217 0 0 1-3.224-3.211zm0 17.125a3.217 3.217 0 0 1 3.224-3.211h31.16v-.214a3.217 3.217 0 0 1 3.224-3.212 3.217 3.217 0 0 1 3.224 3.212v.214h3.653a3.217 3.217 0 0 1 3.223 3.21 3.217 3.217 0 0 1-3.223 3.212h-3.653v.213a3.217 3.217 0 0 1-3.224 3.212 3.217 3.217 0 0 1-3.224-3.212v-.213h-31.16a3.217 3.217 0 0 1-3.224-3.211zm0 17.125a3.217 3.217 0 0 1 3.224-3.211h20.845v-.214a3.217 3.217 0 0 1 3.224-3.21 3.217 3.217 0 0 1 3.223 3.21v.214h13.969a3.217 3.217 0 0 1 3.223 3.211 3.217 3.217 0 0 1-3.223 3.21h-13.969v.215a3.217 3.217 0 0 1-3.223 3.211 3.217 3.217 0 0 1-3.224-3.21v-.215h-20.845a3.217 3.217 0 0 1-3.224-3.21zm47.708 17.125a3.217 3.217 0 0 1-3.223 3.212h-24.284v.213a3.217 3.217 0 0 1-3.224 3.211 3.217 3.217 0 0 1-3.223-3.21v-.214h-10.53a3.217 3.217 0 0 1-3.224-3.212 3.217 3.217 0 0 1 3.224-3.21h10.53v-.214a3.217 3.217 0 0 1 3.223-3.212 3.217 3.217 0 0 1 3.224 3.212v.214h24.284a3.217 3.217 0 0 1 3.223 3.21z"/></g></g></svg>