<svg xmlns="http://www.w3.org/2000/svg" width="177" height="143" viewBox="0 0 177 143"><g><g><path fill="#059feb" d="M167.962 104.004H9.039c-4.984 0-9.039-4.072-9.039-9.08V9.079C0 4.072 4.055 0 9.04 0h158.922C172.944 0 177 4.072 177 9.08v85.846c0 5.007-4.056 9.079-9.038 9.079zM9.039 7.334c-.958 0-1.74.782-1.74 1.744v85.847c0 .962.782 1.746 1.74 1.746h158.923c.958 0 1.738-.784 1.738-1.746V9.078c0-.962-.78-1.745-1.738-1.745zm60.565 72.533c-1.198-.658-1.978-1.886-1.978-3.258V27.394a3.67 3.67 0 0 1 1.978-3.258 3.635 3.635 0 0 1 3.788.27l34.446 24.608a3.67 3.67 0 0 1 1.534 2.988c0 1.187-.57 2.3-1.534 2.988 0 0-25.836 18.455-34.446 24.607-.63.45-1.986 1.26-3.788.27zm5.323-45.365v35l24.497-17.5zM177 128.484a3.658 3.658 0 0 1-3.65 3.667h-69.762c-1.62 6.233-7.274 10.849-13.98 10.849s-12.358-4.615-13.979-10.85H3.65A3.658 3.658 0 0 1 0 128.485a3.659 3.659 0 0 1 3.65-3.666h71.979c1.62-6.235 7.273-10.849 13.978-10.849 6.706 0 12.36 4.614 13.98 10.849h69.763a3.66 3.66 0 0 1 3.65 3.666zm-80.244 0c0-3.96-3.207-7.181-7.149-7.181-3.94 0-7.148 3.22-7.148 7.18 0 3.961 3.208 7.182 7.148 7.182 3.942 0 7.15-3.22 7.15-7.181z"/></g></g></svg>