<svg xmlns="http://www.w3.org/2000/svg" width="86" height="57" viewBox="0 0 86 57"><g><g><path fill="#363636" d="M86 7.43v42.138C86 53.666 82.708 57 78.663 57H7.337C3.29 57 0 53.666 0 49.57V7.428C0 3.334 3.291 0 7.337 0h71.326C82.709 0 86 3.334 86 7.43zm-2.786 0c0-2.541-2.042-4.609-4.551-4.609H7.337c-2.51 0-4.55 2.068-4.55 4.609v42.138c0 2.542 2.04 4.609 4.55 4.609h71.326c2.51 0 4.55-2.067 4.55-4.609zM41.776 42.822a4.452 4.452 0 0 1-.975 3.584 4.334 4.334 0 0 1-3.33 1.564H11.795c-1.286 0-2.5-.57-3.33-1.564a4.454 4.454 0 0 1-.976-3.584l.591-3.593a4.402 4.402 0 0 1 3.219-3.554l7.482-1.95v-2.659a10.515 10.515 0 0 1-4.458-8.586v-4.515c0-4.927 3.958-8.936 8.823-8.936h2.972c4.865 0 8.823 4.009 8.823 8.936v4.515c0 3.428-1.69 6.646-4.458 8.586v2.66l7.482 1.949a4.401 4.401 0 0 1 3.219 3.555zm-2.748.464l-.591-3.593a1.592 1.592 0 0 0-1.165-1.285l-8.528-2.221a1.408 1.408 0 0 1-1.046-1.367v-4.529c0-.503.265-.969.695-1.22a7.663 7.663 0 0 0 3.763-6.591v-4.515c0-3.371-2.708-6.114-6.037-6.114h-2.972c-3.329 0-6.037 2.743-6.037 6.114v4.515a7.663 7.663 0 0 0 3.764 6.59c.43.253.694.718.694 1.221v4.529c0 .644-.43 1.206-1.046 1.367l-8.528 2.22a1.592 1.592 0 0 0-1.165 1.286l-.59 3.593c-.078.471.047.932.352 1.296.305.365.733.565 1.205.565H37.47c.472 0 .9-.2 1.205-.565a1.59 1.59 0 0 0 .353-1.296zm7.037-31.341c0-.78.623-1.411 1.393-1.411h17.831c.77 0 1.393.631 1.393 1.411s-.623 1.411-1.393 1.411H47.458c-.77 0-1.393-.632-1.393-1.411zm32.505 6.02c0 .779-.623 1.41-1.393 1.41h-29.72c-.769 0-1.392-.631-1.392-1.41 0-.78.623-1.411 1.393-1.411h29.719c.77 0 1.393.632 1.393 1.41zm-5.944 15.05c0 .779-.623 1.41-1.393 1.41H53.402c-.77 0-1.393-.631-1.393-1.41 0-.78.623-1.412 1.393-1.412h17.831c.77 0 1.393.632 1.393 1.411zm0 6.019c0 .779-.623 1.41-1.393 1.41H53.402c-.77 0-1.393-.631-1.393-1.41 0-.78.623-1.41 1.393-1.41h17.831c.77 0 1.393.63 1.393 1.41zm5.944-12.04v18.06c0 1.607-1.291 2.916-2.879 2.916H48.944c-1.588 0-2.88-1.309-2.88-2.916v-18.06c0-1.608 1.292-2.915 2.88-2.915H75.69c1.588 0 2.88 1.307 2.88 2.915zm-2.786 0a.094.094 0 0 0-.093-.094H48.944a.094.094 0 0 0-.093.094v18.06c0 .051.042.093.093.093H75.69a.094.094 0 0 0 .093-.093z"/></g></g></svg>