<svg xmlns="http://www.w3.org/2000/svg" width="70" height="56" viewBox="0 0 70 56"><g><g><path fill="#363636" d="M70 3.403v38.572a3.413 3.413 0 0 1-3.415 3.404H42.716l.995 7.537h4.254c.854 0 1.546.69 1.546 1.542 0 .851-.692 1.541-1.546 1.541h-25.93c-.854 0-1.547-.69-1.547-1.54 0-.852.693-1.543 1.547-1.543h4.254l.995-7.537H3.415A3.413 3.413 0 0 1 0 41.975V3.403A3.414 3.414 0 0 1 3.415 0h63.17A3.414 3.414 0 0 1 70 3.403zm-66.907 0v32.581h63.814V3.404a.322.322 0 0 0-.322-.321H3.415a.322.322 0 0 0-.322.32zM39.597 45.38h-9.194l-.994 7.537h11.182zm27.31-3.404v-2.908H3.093v2.908c0 .177.145.32.322.32h63.17a.322.322 0 0 0 .322-.32zM19.61 27.099V12.636c0-2.6 2.122-4.715 4.73-4.715H45.66c2.608 0 4.73 2.115 4.73 4.715v14.463c0 2.6-2.122 4.715-4.73 4.715H24.34c-2.608 0-4.73-2.115-4.73-4.715zm3.093 0c0 .9.735 1.632 1.637 1.632H45.66c.902 0 1.637-.732 1.637-1.632V12.635c0-.9-.735-1.632-1.637-1.632H24.34c-.902 0-1.637.732-1.637 1.632zm8.733-3.178v-8.107c0-.55.295-1.06.773-1.335a1.552 1.552 0 0 1 1.547 0l7.044 4.054a1.54 1.54 0 0 1 0 2.67l-7.044 4.052a1.545 1.545 0 0 1-1.547 0 1.539 1.539 0 0 1-.773-1.334zm3.093-2.67l2.405-1.384-2.405-1.383z"/></g></g></svg>