<svg xmlns="http://www.w3.org/2000/svg" width="36" height="58" viewBox="0 0 36 58"><g><g><path fill="#fff" d="M36 15.892v26.214c0 2.264-.476 6.614-3.661 10.327C29.17 56.126 24.346 58 17.999 58c-6.345 0-11.17-1.873-14.338-5.566C.475 48.72 0 44.37 0 42.106V15.892C0 13.629.475 9.278 3.66 5.565 6.829 1.872 11.654-.001 18-.001s11.17 1.873 14.339 5.566c3.185 3.713 3.66 8.064 3.66 10.327zm-15.615 1.944v-5.079A2.38 2.38 0 0 0 18 10.387a2.38 2.38 0 0 0-2.385 2.37v5.079A2.38 2.38 0 0 0 18 20.206a2.38 2.38 0 0 0 2.385-2.37zm13.732-1.944c0-2.293-.747-13.535-15.176-14.005v6.734c1.902.428 3.327 2.12 3.327 4.136v5.079c0 2.017-1.425 3.708-3.327 4.135v7.687a.938.938 0 0 1-.941.936.938.938 0 0 1-.942-.936V21.97c-1.901-.427-3.326-2.118-3.326-4.135v-5.079c0-2.017 1.425-3.708 3.326-4.136V1.887C2.63 2.357 1.882 13.6 1.882 15.892v26.214c0 2.342.777 14.022 16.118 14.022 15.34 0 16.117-11.68 16.117-14.022z"/></g></g></svg>